<svg id="visual" viewBox="0 0 900 600" width="900" height="600" xmlns="http://www.w3.org/2000/svg" xmlns:xlink="http://www.w3.org/1999/xlink" version="1.1"><rect x="0" y="0" width="900" height="600" fill="#001220"></rect><path d="M303 0L299.7 14.3C296.3 28.7 289.7 57.3 293.2 85.8C296.7 114.3 310.3 142.7 311.5 171.2C312.7 199.7 301.3 228.3 309.5 257C317.7 285.7 345.3 314.3 347.7 343C350 371.7 327 400.3 306 428.8C285 457.3 266 485.7 272.2 514.2C278.3 542.7 309.7 571.3 325.3 585.7L341 600L0 600L0 585.7C0 571.3 0 542.7 0 514.2C0 485.7 0 457.3 0 428.8C0 400.3 0 371.7 0 343C0 314.3 0 285.7 0 257C0 228.3 0 199.7 0 171.2C0 142.7 0 114.3 0 85.8C0 57.3 0 28.7 0 14.3L0 0Z" fill="#fa7268"></path><path d="M249 0L248.3 14.3C247.7 28.7 246.3 57.3 255 85.8C263.7 114.3 282.3 142.7 282.2 171.2C282 199.7 263 228.3 245.3 257C227.7 285.7 211.3 314.3 215 343C218.7 371.7 242.3 400.3 251.2 428.8C260 457.3 254 485.7 247.8 514.2C241.7 542.7 235.3 571.3 232.2 585.7L229 600L0 600L0 585.7C0 571.3 0 542.7 0 514.2C0 485.7 0 457.3 0 428.8C0 400.3 0 371.7 0 343C0 314.3 0 285.7 0 257C0 228.3 0 199.7 0 171.2C0 142.7 0 114.3 0 85.8C0 57.3 0 28.7 0 14.3L0 0Z" fill="#ef5f67"></path><path d="M180 0L183 14.3C186 28.7 192 57.3 201.2 85.8C210.3 114.3 222.7 142.7 229.7 171.2C236.7 199.7 238.3 228.3 221.8 257C205.3 285.7 170.7 314.3 166.3 343C162 371.7 188 400.3 194.5 428.8C201 457.3 188 485.7 177.3 514.2C166.7 542.7 158.3 571.3 154.2 585.7L150 600L0 600L0 585.7C0 571.3 0 542.7 0 514.2C0 485.7 0 457.3 0 428.8C0 400.3 0 371.7 0 343C0 314.3 0 285.7 0 257C0 228.3 0 199.7 0 171.2C0 142.7 0 114.3 0 85.8C0 57.3 0 28.7 0 14.3L0 0Z" fill="#e34c67"></path><path d="M165 0L154.7 14.3C144.3 28.7 123.7 57.3 110.8 85.8C98 114.3 93 142.7 90.3 171.2C87.7 199.7 87.3 228.3 91.3 257C95.3 285.7 103.7 314.3 118.2 343C132.7 371.7 153.3 400.3 164.2 428.8C175 457.3 176 485.7 176.5 514.2C177 542.7 177 571.3 177 585.7L177 600L0 600L0 585.7C0 571.3 0 542.7 0 514.2C0 485.7 0 457.3 0 428.8C0 400.3 0 371.7 0 343C0 314.3 0 285.7 0 257C0 228.3 0 199.7 0 171.2C0 142.7 0 114.3 0 85.8C0 57.3 0 28.7 0 14.3L0 0Z" fill="#d53867"></path><path d="M60 0L66.3 14.3C72.7 28.7 85.3 57.3 87.2 85.8C89 114.3 80 142.7 72.3 171.2C64.7 199.7 58.3 228.3 57.8 257C57.3 285.7 62.7 314.3 65.5 343C68.3 371.7 68.7 400.3 64.8 428.8C61 457.3 53 485.7 50.2 514.2C47.3 542.7 49.7 571.3 50.8 585.7L52 600L0 600L0 585.7C0 571.3 0 542.7 0 514.2C0 485.7 0 457.3 0 428.8C0 400.3 0 371.7 0 343C0 314.3 0 285.7 0 257C0 228.3 0 199.7 0 171.2C0 142.7 0 114.3 0 85.8C0 57.3 0 28.7 0 14.3L0 0Z" fill="#c62368"></path></svg>